<svg xmlns="http://www.w3.org/2000/svg" viewBox="0 0 465.97 419.79"><defs><style>.cls-1{fill:none;stroke-width:2.83px;}.cls-1,.cls-26{stroke:#1c1c1b;stroke-miterlimit:10;}.cls-2{fill:#e22423;}.cls-3{fill:#cdcccc;}.cls-4{font-size:14px;fill:#1c1c1b;font-family:DIN-Bold, DIN;font-weight:700;}.cls-5{letter-spacing:-0.01em;}.cls-6{letter-spacing:-0.02em;}.cls-7{letter-spacing:-0.02em;}.cls-8{letter-spacing:-0.01em;}.cls-9{font-family:DIN-Regular, DIN;font-weight:400;}.cls-10{letter-spacing:-0.02em;}.cls-11{letter-spacing:-0.03em;}.cls-12{letter-spacing:-0.01em;}.cls-13{letter-spacing:-0.01em;}.cls-14{letter-spacing:-0.03em;}.cls-15{letter-spacing:-0.02em;}.cls-16{letter-spacing:-0.01em;}.cls-17{letter-spacing:-0.01em;}.cls-18{letter-spacing:-0.03em;}.cls-19{letter-spacing:-0.01em;}.cls-20{letter-spacing:-0.02em;}.cls-21{letter-spacing:-0.03em;}.cls-22{letter-spacing:0em;}.cls-23{letter-spacing:-0.03em;}.cls-24{letter-spacing:0em;}.cls-25{letter-spacing:-0.01em;}.cls-26{fill:#fff;stroke-width:2.18px;}</style></defs><g id="图层_2" data-name="图层 2"><g id="Layer_1" data-name="Layer 1"><rect class="cls-1" x="1.42" y="1.42" width="463.14" height="416.96"/><circle class="cls-2" cx="60.9" cy="37.09" r="12.34"/><circle class="cls-2" cx="43.96" cy="331.01" r="2.04"/><circle class="cls-2" cx="43.96" cy="324.59" r="2.04"/><circle class="cls-2" cx="43.96" cy="318.18" r="2.04"/><circle class="cls-2" cx="43.96" cy="299.27" r="2.04"/><circle class="cls-2" cx="43.96" cy="290.69" r="2.04"/><circle class="cls-2" cx="52.69" cy="331.01" r="2.04"/><circle class="cls-2" cx="52.69" cy="315.63" r="2.04"/><circle class="cls-2" cx="52.69" cy="308.74" r="2.04"/><circle class="cls-2" cx="52.69" cy="286.48" r="2.04"/><circle class="cls-2" cx="52.69" cy="290.69" r="2.04"/><circle class="cls-2" cx="52.69" cy="279.88" r="2.04"/><circle class="cls-2" cx="61.41" cy="325.25" r="2.04"/><circle class="cls-2" cx="61.41" cy="319.49" r="2.04"/><circle class="cls-2" cx="61.41" cy="310.52" r="2.04"/><circle class="cls-2" cx="61.41" cy="293.25" r="2.04"/><circle class="cls-2" cx="61.41" cy="283.93" r="2.04"/><circle class="cls-2" cx="70.14" cy="327.8" r="2.04"/><circle class="cls-2" cx="70.14" cy="320.74" r="2.04"/><circle class="cls-2" cx="70.14" cy="314.48" r="2.04"/><circle class="cls-2" cx="70.14" cy="311.93" r="2.04"/><circle class="cls-2" cx="70.14" cy="286.48" r="2.04"/><circle class="cls-2" cx="78.86" cy="325.25" r="2.04"/><circle class="cls-2" cx="78.86" cy="315.39" r="2.04"/><circle class="cls-2" cx="78.86" cy="306.19" r="2.04"/><circle class="cls-2" cx="78.86" cy="293.25" r="2.04"/><circle class="cls-2" cx="78.86" cy="281.37" r="2.04"/><circle class="cls-2" cx="87.58" cy="293.25" r="2.04"/><circle class="cls-2" cx="87.58" cy="307.97" r="2.04"/><circle class="cls-2" cx="87.58" cy="328.45" r="2.04"/><circle class="cls-2" cx="87.58" cy="299.27" r="2.04"/><circle class="cls-2" cx="87.58" cy="282.12" r="2.04"/><rect class="cls-3" x="17.66" y="139.32" width="86.47" height="12.15"/><path class="cls-3" d="M23.17,204.58H98.23s5.11,32.53-21.54,46.53Z"/><text class="cls-4" transform="translate(131.87 28.52)"><tspan class="cls-5">P</tspan><tspan x="8.65" y="0">er</tspan><tspan class="cls-6" x="22.69" y="0">f</tspan><tspan x="27.26" y="0">orman</tspan><tspan class="cls-7" x="68.99" y="0">c</tspan><tspan x="75.46" y="0">e Ind</tspan><tspan class="cls-8" x="106.52" y="0">e</tspan><tspan x="114.11" y="0">x</tspan><tspan class="cls-9"><tspan x="0" y="16.8">- Dif</tspan><tspan class="cls-10" x="26.81" y="16.8">f</tspan><tspan x="30.94" y="16.8">e</tspan><tspan class="cls-11" x="38.36" y="16.8">r</tspan><tspan x="43.78" y="16.8">en</tspan><tspan class="cls-12" x="59.07" y="16.8">c</tspan><tspan x="65.72" y="16.8">e bet</tspan><tspan class="cls-13" x="96.32" y="16.8">w</tspan><tspan x="106.39" y="16.8">een actual selling pri</tspan><tspan class="cls-12" x="236.57" y="16.8">c</tspan><tspan x="243.22" y="16.8">e and </tspan><tspan class="cls-14" x="280.47" y="16.8">r</tspan><tspan x="285.89" y="16.8">e</tspan><tspan class="cls-15" x="293.31" y="16.8">f</tspan><tspan x="297.44" y="16.8">er</tspan><tspan x="310.75" y="16.8">-</tspan><tspan x="0" y="33.6">en</tspan><tspan class="cls-12" x="15.29" y="33.6">c</tspan><tspan x="21.94" y="33.6">e pri</tspan><tspan class="cls-12" x="49.91" y="33.6">c</tspan><tspan x="56.56" y="33.6">e. </tspan><tspan x="0" y="50.4">- Higher the bet</tspan><tspan class="cls-16" x="98.13" y="50.4">t</tspan><tspan x="102.66" y="50.4">er, further the bet</tspan><tspan class="cls-17" x="213.75" y="50.4">t</tspan><tspan x="218.29" y="50.4">er: meaning </tspan><tspan x="0" y="67.2">mo</tspan><tspan class="cls-18" x="19.73" y="67.2">r</tspan><tspan x="25.14" y="67.2">e holding </tspan><tspan class="cls-19" x="85.62" y="67.2">v</tspan><tspan x="91.74" y="67.2">alue</tspan><tspan x="0" y="84">- What </tspan><tspan class="cls-12" x="44.77" y="84">c</tspan><tspan x="51.42" y="84">o</tspan><tspan class="cls-20" x="58.84" y="84">l</tspan><tspan x="62.72" y="84">our has the highe</tspan><tspan class="cls-5" x="170.77" y="84">s</tspan><tspan x="177.57" y="84">t holding </tspan><tspan class="cls-19" x="235.28" y="84">v</tspan><tspan x="241.4" y="84">alue?</tspan></tspan></text><text class="cls-4" transform="translate(131.87 145.49)"><tspan class="cls-21">A</tspan><tspan class="cls-19" x="8.58" y="0">v</tspan><tspan x="15.34" y="0">e</tspan><tspan class="cls-5" x="23.02" y="0">r</tspan><tspan x="29.25" y="0">age </tspan><tspan class="cls-7" x="55.41" y="0">c</tspan><tspan x="61.88" y="0">ondition bar</tspan><tspan class="cls-9"><tspan x="0" y="16.8">- H</tspan><tspan class="cls-5" x="19.19" y="16.8">ov</tspan><tspan x="32.59" y="16.8">er </tspan><tspan class="cls-16" x="49.39" y="16.8">t</tspan><tspan x="53.93" y="16.8">o see the a</tspan><tspan class="cls-5" x="120.89" y="16.8">v</tspan><tspan x="127.01" y="16.8">e</tspan><tspan class="cls-19" x="134.43" y="16.8">r</tspan><tspan class="cls-22" x="140.18" y="16.8">age </tspan><tspan class="cls-12" x="166.05" y="16.8">c</tspan><tspan x="172.7" y="16.8">ondition of the model </tspan><tspan x="0" y="33.6">when sold!</tspan></tspan></text><text class="cls-4" transform="translate(131.87 360.29)">D<tspan class="cls-5" x="9.23" y="0">r</tspan><tspan x="15.46" y="0">ag &amp; Zoom</tspan><tspan class="cls-9"><tspan x="0" y="16.8">- Click on the whi</tspan><tspan class="cls-16" x="107.66" y="16.8">t</tspan><tspan x="112.2" y="16.8">e bac</tspan><tspan class="cls-20" x="144.95" y="16.8">k</tspan><tspan x="152.18" y="16.8">g</tspan><tspan class="cls-18" x="159.78" y="16.8">r</tspan><tspan x="165.2" y="16.8">ound </tspan><tspan class="cls-17" x="199.47" y="16.8">t</tspan><tspan x="204.01" y="16.8">o d</tspan><tspan class="cls-19" x="222.54" y="16.8">r</tspan><tspan x="228.3" y="16.8">ag, use t</tspan><tspan class="cls-13" x="280.81" y="16.8">w</tspan><tspan x="290.88" y="16.8">o </tspan><tspan x="0" y="33.6">finge</tspan><tspan class="cls-5" x="30.83" y="33.6">r</tspan><tspan x="36.58" y="33.6">s </tspan><tspan class="cls-16" x="47.01" y="33.6">t</tspan><tspan x="51.55" y="33.6">o zoom</tspan></tspan></text><text class="cls-4" transform="translate(131.87 216.03)">Manu<tspan class="cls-6" x="34.87" y="0">f</tspan><tspan class="cls-22" x="39.44" y="0">actu</tspan><tspan class="cls-23" x="66.58" y="0">r</tspan><tspan x="72.52" y="0">er pie</tspan><tspan class="cls-9"><tspan x="0" y="16.8">- H</tspan><tspan class="cls-5" x="19.19" y="16.8">ov</tspan><tspan x="32.59" y="16.8">er </tspan><tspan class="cls-16" x="49.39" y="16.8">t</tspan><tspan x="53.93" y="16.8">o h</tspan><tspan class="cls-24" x="72.7" y="16.8">o</tspan><tspan x="80.05" y="16.8">w much does that manu</tspan><tspan class="cls-15" x="228.38" y="16.8">f</tspan><tspan x="232.51" y="16.8">actu</tspan><tspan class="cls-11" x="259.25" y="16.8">r</tspan><tspan x="264.67" y="16.8">er </tspan><tspan x="0" y="33.6">o</tspan><tspan class="cls-12" x="7.42" y="33.6">c</tspan><tspan x="14.07" y="33.6">cupy </tspan><tspan class="cls-25" x="46.17" y="33.6">c</tspan><tspan x="52.86" y="33.6">ar mar</tspan><tspan class="cls-20" x="95.17" y="33.6">k</tspan><tspan x="102.4" y="33.6">et!</tspan></tspan></text><text class="cls-4" transform="translate(131.87 287.8)"><tspan class="cls-21">A</tspan><tspan class="cls-19" x="8.58" y="0">v</tspan><tspan x="15.34" y="0">e</tspan><tspan class="cls-5" x="23.02" y="0">r</tspan><tspan x="29.25" y="0">age pri</tspan><tspan class="cls-7" x="73.47" y="0">c</tspan><tspan x="79.94" y="0">e of the model</tspan><tspan class="cls-9"><tspan x="0" y="16.8">- Come and check the a</tspan><tspan class="cls-5" x="146.13" y="16.8">v</tspan><tspan x="152.25" y="16.8">e</tspan><tspan class="cls-19" x="159.67" y="16.8">r</tspan><tspan x="165.42" y="16.8">age pri</tspan><tspan class="cls-12" x="208.36" y="16.8">c</tspan><tspan x="215.01" y="16.8">e of the model in </tspan><tspan x="0" y="33.6">this specific </tspan><tspan class="cls-12" x="77.17" y="33.6">c</tspan><tspan x="83.82" y="33.6">o</tspan><tspan class="cls-20" x="91.24" y="33.6">l</tspan><tspan x="95.11" y="33.6">our!</tspan></tspan></text><polygon class="cls-26" points="58.38 358.39 58.38 388.28 66.43 380.23 77.54 380.23 58.38 358.39"/></g></g></svg>